<mxfile host="Electron" modified="2024-10-04T14:18:18.673Z" agent="Mozilla/5.0 (Windows NT 10.0; Win64; x64) AppleWebKit/537.36 (KHTML, like Gecko) draw.io/22.0.0 Chrome/114.0.5735.289 Electron/25.8.3 Safari/537.36" etag="GGAwws0tDnYe-8JrtVnF" version="22.0.0" type="device">
  <diagram name="Page-1" id="IgUBAvVvz_bRSGltK3DH">
    <mxGraphModel dx="1181" dy="644" grid="1" gridSize="10" guides="1" tooltips="1" connect="1" arrows="1" fold="1" page="1" pageScale="1" pageWidth="827" pageHeight="1169" math="0" shadow="0">
      <root>
        <mxCell id="0" />
        <mxCell id="1" parent="0" />
        <mxCell id="5R5Zfie6tbX_Vx82pDZm-1" value="" style="rounded=0;whiteSpace=wrap;html=1;" vertex="1" parent="1">
          <mxGeometry x="180" y="50" width="440" height="590" as="geometry" />
        </mxCell>
        <mxCell id="5R5Zfie6tbX_Vx82pDZm-4" value="Tournoi de Saint Laurent Blangy" style="rounded=0;whiteSpace=wrap;html=1;" vertex="1" parent="1">
          <mxGeometry x="370" y="80" width="200" height="80" as="geometry" />
        </mxCell>
        <mxCell id="5R5Zfie6tbX_Vx82pDZm-5" value="Logo" style="ellipse;whiteSpace=wrap;html=1;" vertex="1" parent="1">
          <mxGeometry x="220" y="75" width="100" height="90" as="geometry" />
        </mxCell>
        <mxCell id="5R5Zfie6tbX_Vx82pDZm-6" value="&lt;div style=&quot;&quot;&gt;&lt;br&gt;&lt;/div&gt;" style="rounded=0;whiteSpace=wrap;html=1;align=center;" vertex="1" parent="1">
          <mxGeometry x="220" y="210" width="360" height="160" as="geometry" />
        </mxCell>
        <mxCell id="5R5Zfie6tbX_Vx82pDZm-24" value="Envoyer" style="rounded=1;whiteSpace=wrap;html=1;" vertex="1" parent="1">
          <mxGeometry x="350" y="585" width="100" height="40" as="geometry" />
        </mxCell>
        <mxCell id="5R5Zfie6tbX_Vx82pDZm-25" value="5961375" style="rounded=0;whiteSpace=wrap;html=1;" vertex="1" parent="1">
          <mxGeometry x="325" y="220" width="150" height="20" as="geometry" />
        </mxCell>
        <mxCell id="5R5Zfie6tbX_Vx82pDZm-26" value="1897" style="rounded=0;whiteSpace=wrap;html=1;" vertex="1" parent="1">
          <mxGeometry x="240" y="300" width="150" height="20" as="geometry" />
        </mxCell>
        <mxCell id="5R5Zfie6tbX_Vx82pDZm-27" value="Saint Amand les Eaux" style="rounded=0;whiteSpace=wrap;html=1;" vertex="1" parent="1">
          <mxGeometry x="414" y="300" width="150" height="20" as="geometry" />
        </mxCell>
        <mxCell id="5R5Zfie6tbX_Vx82pDZm-28" value="cyrilbourlet6@gmail.com" style="rounded=0;whiteSpace=wrap;html=1;" vertex="1" parent="1">
          <mxGeometry x="414" y="340" width="150" height="20" as="geometry" />
        </mxCell>
        <mxCell id="5R5Zfie6tbX_Vx82pDZm-29" value="07 83 88 61 62" style="rounded=0;whiteSpace=wrap;html=1;" vertex="1" parent="1">
          <mxGeometry x="240" y="340" width="150" height="20" as="geometry" />
        </mxCell>
        <mxCell id="5R5Zfie6tbX_Vx82pDZm-30" value="Bourlet" style="rounded=0;whiteSpace=wrap;html=1;" vertex="1" parent="1">
          <mxGeometry x="414" y="260" width="150" height="20" as="geometry" />
        </mxCell>
        <mxCell id="5R5Zfie6tbX_Vx82pDZm-31" value="Cyril" style="rounded=0;whiteSpace=wrap;html=1;" vertex="1" parent="1">
          <mxGeometry x="240" y="260" width="150" height="20" as="geometry" />
        </mxCell>
        <mxCell id="5R5Zfie6tbX_Vx82pDZm-32" value="Samedi 04 novembre" style="swimlane;fontStyle=0;childLayout=stackLayout;horizontal=1;startSize=30;horizontalStack=0;resizeParent=1;resizeParentMax=0;resizeLast=0;collapsible=1;marginBottom=0;whiteSpace=wrap;html=1;" vertex="1" parent="1">
          <mxGeometry x="220" y="400" width="140" height="120" as="geometry" />
        </mxCell>
        <mxCell id="5R5Zfie6tbX_Vx82pDZm-33" value="A: &amp;lt;1900" style="text;strokeColor=none;fillColor=none;align=left;verticalAlign=middle;spacingLeft=4;spacingRight=4;overflow=hidden;points=[[0,0.5],[1,0.5]];portConstraint=eastwest;rotatable=0;whiteSpace=wrap;html=1;" vertex="1" parent="5R5Zfie6tbX_Vx82pDZm-32">
          <mxGeometry y="30" width="140" height="30" as="geometry" />
        </mxCell>
        <mxCell id="5R5Zfie6tbX_Vx82pDZm-34" value="B: &amp;lt;1100" style="text;strokeColor=none;fillColor=none;align=left;verticalAlign=middle;spacingLeft=4;spacingRight=4;overflow=hidden;points=[[0,0.5],[1,0.5]];portConstraint=eastwest;rotatable=0;whiteSpace=wrap;html=1;" vertex="1" parent="5R5Zfie6tbX_Vx82pDZm-32">
          <mxGeometry y="60" width="140" height="30" as="geometry" />
        </mxCell>
        <mxCell id="5R5Zfie6tbX_Vx82pDZm-35" value="C: Non numéroté" style="text;strokeColor=none;fillColor=none;align=left;verticalAlign=middle;spacingLeft=4;spacingRight=4;overflow=hidden;points=[[0,0.5],[1,0.5]];portConstraint=eastwest;rotatable=0;whiteSpace=wrap;html=1;" vertex="1" parent="5R5Zfie6tbX_Vx82pDZm-32">
          <mxGeometry y="90" width="140" height="30" as="geometry" />
        </mxCell>
        <mxCell id="5R5Zfie6tbX_Vx82pDZm-36" value="Dimanche 05 novembre" style="swimlane;fontStyle=0;childLayout=stackLayout;horizontal=1;startSize=30;horizontalStack=0;resizeParent=1;resizeParentMax=0;resizeLast=0;collapsible=1;marginBottom=0;whiteSpace=wrap;html=1;" vertex="1" parent="1">
          <mxGeometry x="440" y="400" width="140" height="120" as="geometry" />
        </mxCell>
        <mxCell id="5R5Zfie6tbX_Vx82pDZm-37" value="D: Open Dame" style="text;strokeColor=none;fillColor=none;align=left;verticalAlign=middle;spacingLeft=4;spacingRight=4;overflow=hidden;points=[[0,0.5],[1,0.5]];portConstraint=eastwest;rotatable=0;whiteSpace=wrap;html=1;" vertex="1" parent="5R5Zfie6tbX_Vx82pDZm-36">
          <mxGeometry y="30" width="140" height="30" as="geometry" />
        </mxCell>
        <mxCell id="5R5Zfie6tbX_Vx82pDZm-38" value="E: Open" style="text;strokeColor=none;fillColor=none;align=left;verticalAlign=middle;spacingLeft=4;spacingRight=4;overflow=hidden;points=[[0,0.5],[1,0.5]];portConstraint=eastwest;rotatable=0;whiteSpace=wrap;html=1;" vertex="1" parent="5R5Zfie6tbX_Vx82pDZm-36">
          <mxGeometry y="60" width="140" height="30" as="geometry" />
        </mxCell>
        <mxCell id="5R5Zfie6tbX_Vx82pDZm-39" value="F: Double" style="text;strokeColor=none;fillColor=none;align=left;verticalAlign=middle;spacingLeft=4;spacingRight=4;overflow=hidden;points=[[0,0.5],[1,0.5]];portConstraint=eastwest;rotatable=0;whiteSpace=wrap;html=1;" vertex="1" parent="5R5Zfie6tbX_Vx82pDZm-36">
          <mxGeometry y="90" width="140" height="30" as="geometry" />
        </mxCell>
        <mxCell id="5R5Zfie6tbX_Vx82pDZm-40" value="" style="verticalLabelPosition=bottom;verticalAlign=top;html=1;shape=mxgraph.basic.tick" vertex="1" parent="1">
          <mxGeometry x="580" y="460" width="15" height="20" as="geometry" />
        </mxCell>
        <mxCell id="5R5Zfie6tbX_Vx82pDZm-41" value="" style="verticalLabelPosition=bottom;verticalAlign=top;html=1;shape=mxgraph.basic.tick" vertex="1" parent="1">
          <mxGeometry x="360" y="490" width="15" height="20" as="geometry" />
        </mxCell>
        <mxCell id="5R5Zfie6tbX_Vx82pDZm-42" value="" style="verticalLabelPosition=bottom;verticalAlign=top;html=1;shape=mxgraph.basic.tick" vertex="1" parent="1">
          <mxGeometry x="360" y="440" width="15" height="20" as="geometry" />
        </mxCell>
      </root>
    </mxGraphModel>
  </diagram>
</mxfile>
